/* XPM */
static char *e4aa2cdca2544535e1a43df2fd0128cajmmFAgB4Xc09yJk6[] = {
/* columns rows colors chars-per-pixel */
"128 22 60 1 ",
"  c black",
". c gray5",
"X c #161616",
"o c gray11",
"O c #222222",
"+ c gray15",
"@ c #2A2A2A",
"# c gray18",
"$ c #323232",
"% c #353535",
"& c gray22",
"* c gray24",
"= c gray25",
"- c gray27",
"; c #494949",
": c gray31",
"> c #515151",
", c #565656",
"< c #585858",
"1 c gray36",
"2 c #606060",
"3 c gray40",
"4 c #686868",
"5 c gray43",
"6 c gray44",
"7 c gray46",
"8 c gray48",
"9 c #7E7E7E",
"0 c #838383",
"q c #868686",
"w c #888888",
"e c gray56",
"r c #939393",
"t c gray59",
"y c #9A9A9A",
"u c gray61",
"i c #A2A2A2",
"p c gray65",
"a c #AAAAAA",
"s c gray68",
"d c gray70",
"f c #B6B6B6",
"g c #B9B9B9",
"h c gray",
"j c #C0C0C0",
"k c gray77",
"l c #C8C8C8",
"z c gray81",
"x c #D0D0D0",
"c c gray83",
"v c gray85",
"b c #DDDDDD",
"n c #E2E2E2",
"m c #E4E4E4",
"M c gray91",
"N c #EFEFEF",
"B c gray94",
"V c #F4F4F4",
"C c #F9F9F9",
"Z c #FEFEFE",
/* pixels */
"                                                                                                                                ",
"                            3ru5o                                                                                 @8yy>         ",
"                           XlVZl-                                                                                 1bCZa.        ",
" wMMMMl-kmMMMyo    .4hbmvh5.6xZz;                                                            .OX                  @rMZs.        ",
" 4zCZmroyMZVh1.   .0NNgsMZa &lZj&                                                            tNu                   6mZy.        ",
"  qNCa  .lZb1     #bZs opZi =vZdo                                                           @cC0                   0NZ7         ",
"  yVCe  XvZc=     =CCs..9c8 ;MZiegs2   .6sjf8 3ag0 *fd< ag8      $tghi=  o0djs4 >ahd:egf3.o9lVZxj9qfg8=pd$ +efja,  rVC,   9djgr$",
"  aCC5  XMZl      &BZNi##,@ >VCvNZCj* @iNcxCn8sVZl&>CBt MCh     ,zNlMCaO&dNxvCv22kZClkbZz;O0bZVhfecCZjhVB2-jNzbCx- uZN;  pMblBV5",
"  gZC4,,1VZh      oaCZCc5X  3ZZb0lZn3.0Vb5>mZh:gZv,:CBr MCg    %lCd$aCg$uCx,5NZp#8VZg-rZN2 .hZn&@O-mZmMNv-fZk=wBZeOsZb- 2bZw&gV4",
" XkZCBBBVZCs       %aMZZNq .wZBqXsZb2$vZgo%lZc>yZn42CM5 NVt    eBV< 0mr<mZuX>vZk&9ZV6.rZN2 #lZcO  .MZNi# 6NZ9.5mZf=jZz& 4nZv06e&",
" -xZmwwqdCVu      && 7lCZc;.pZn5ohZc:1CCu %lZc>9ZM7wCn=<BM;   odZn* -e=9ZV0 >vZk*eZM3+aZn, :cZjo  &VZjO XyZN1 5mZf:xZh$ +aVZBj1 ",
" 1vZlX  iCBw      zl  ;xZm5.hZv<OcZkOqZBt &vZh%1ZN0fZM4yVd    &jZv&   XyZN8 1mZa%pZb1%jZz; 2bZdo  5VVu  @dZm< 9NZr<bZa+  $wvZZx;",
" 5mZfX  gCN6     1Bm   dZb<.xZx*+MZfo9ZVy >VVt :BVumVBrxb=    &jZb= X#orZN9 7CB8#hZx:=cZg;.5nZpX  eCBw  +aZM1 tZM<3MZr%Osv1:fZB2",
"%rBZs%.&xZM5o    0VB9>4bVd XnZl &CCzd3NZg<fCl= ;mCnxjCvn9.    XaZVq,qf>4VZi2jCf$&zZk=;nZxl>4nZf26@aCN6  .wCCe5xCuO5VZgh>zZu<tVv>",
"aMZZmy,hVZCx5    6vBNcnmd& +BZh &NZNj;uNBvmj,  =vZm5iZVi+      2zCBxxd=%sBNvmf- =nZg#=cZBl,*jCNxh-jZM:   ;hVMvnp& 3NZNh-aBBvbv0o",
"9yyyy6=wyyyr>    .2qrte5X  Xrt5 .9t8% +8tt8%   O8y5o>yq&        ,wte4o  &0tr6@  Owy4.o5t9&  <etq> 7two    ;qte5o  #9r7@ *9ttw<. ",
"                                                                                                                                ",
"                                                                                                                                ",
"                                                                                                                                ",
"                                                                                                                                ",
"                                                                                                                                ",
"                                                                                                                                "
};
