/* XPM */
static char * crosshair_xpm[] = {
"40 24 75 1",
" 	c None",
".	c #DDDDDD",
"+	c #F8F8F8",
"@	c #F2F2F2",
"#	c #EAEAEA",
"$	c #FCFBFC",
"%	c #FFFFFF",
"&	c #8E8E8E",
"*	c #A8A8A8",
"=	c #FEFEFE",
"-	c #F3F3F3",
";	c #FAFAFA",
">	c #DADADA",
",	c #7E7E7E",
"'	c #F9F9F9",
")	c #F6F6F6",
"!	c #FDFDFD",
"~	c #A3A3A3",
"{	c #B1B1B1",
"]	c #C1C1C1",
"^	c #F7F7F7",
"/	c #787878",
"(	c #9E9E9E",
"_	c #AFAFAF",
":	c #737373",
"<	c #7F7F7F",
"[	c #9B9B9B",
"}	c #A4A4A4",
"|	c #A5A5A5",
"1	c #C9C9C9",
"2	c #848484",
"3	c #969696",
"4	c #D9D9D9",
"5	c #D3D3D3",
"6	c #959595",
"7	c #818181",
"8	c #979797",
"9	c #A9A9A9",
"0	c #7D7D7D",
"a	c #6D6D6D",
"b	c #9A9A9A",
"c	c #7A7A7A",
"d	c #B7B7B7",
"e	c #898989",
"f	c #ABABAB",
"g	c #686868",
"h	c #B2B2B2",
"i	c #8C8C8C",
"j	c #646464",
"k	c #777777",
"l	c #6C6C6C",
"m	c #727272",
"n	c #9C9C9C",
"o	c #999999",
"p	c #BBBBBB",
"q	c #888888",
"r	c #F5F5F5",
"s	c #6B6B6B",
"t	c #939393",
"u	c #EFEFEF",
"v	c #616161",
"w	c #ADADAD",
"x	c #CFCFCF",
"y	c #E2E2E2",
"z	c #656565",
"A	c #909090",
"B	c #C2C2C2",
"C	c #CDCDCD",
"D	c #C4C4C4",
"E	c #A7A6A7",
"F	c #E7E7E7",
"G	c #8F8F8F",
"H	c #858585",
"I	c #929292",
"J	c #626262",
"                                        ",
"                                        ",
"                                        ",
"                                        ",
"                                        ",
"      .+@#$%&               *=-;%%>     ",
"     ,')!~                     {'!%     ",
"      ]%^$                    /%$%(     ",
"       _%%%:        <        [%%!}      ",
"        |1>%2       3       }%456       ",
"            ;7      8      }%           ",
"         9,  %0     a     6$  ,b        ",
"         cde  %7         f=  efg        ",
"          chi  %/       ~=  8_j         ",
"           khi l!m     n^  odj          ",
"            cpq lrs   tu  o{v           ",
"             m3  wx   y3  nz            ",
"                 AB   Cz                ",
"                 3D   B7                ",
"                 E.   FG                ",
"                 sH   IJ                ",
"                                        ",
"                                        ",
"                                        "};
